# Blender 4.0.1
# www.blender.org
mtllib corp.mtl
o Cube.001
v -2.173251 0.470998 -3.065723
v 2.173251 0.470998 -3.065723
v -2.173251 0.470998 3.065723
v 2.173251 0.470998 3.065723
v -2.173251 1.929002 2.632624
v 2.173251 1.929002 2.632624
v -2.173251 1.929002 2.632624
v 2.173251 1.929002 2.632624
v -2.173251 1.929002 1.286844
v -1.327884 1.728486 -0.913583
v -1.327883 1.417242 -2.222479
v 1.327884 1.417242 -2.222479
v 2.173251 1.929002 1.286844
v 1.327884 1.728486 -0.913583
v -1.949557 1.032456 -2.842591
v -2.173251 0.745725 -3.065723
v -2.173251 0.998846 -2.624807
v 2.173251 0.745725 -3.065723
v 1.949557 1.032456 -2.842591
v 2.173251 0.998846 -2.624807
v -2.173251 1.321895 3.065723
v -2.173251 1.689911 2.878927
v 2.173251 1.689911 2.878927
v 2.173251 1.321895 3.065723
vn -0.0000 -1.0000 -0.0000
vn -0.0000 1.0000 -0.0000
vn 1.0000 -0.0000 -0.0000
vn -1.0000 -0.0000 -0.0000
vn -0.0000 0.9729 -0.2313
vn -0.0000 -0.0000 1.0000
vn -0.0000 -0.0000 -1.0000
vn -0.0000 0.9959 -0.0908
vn -0.3482 0.9120 -0.2169
vn 0.3482 0.9120 -0.2169
vn -0.5239 0.7387 -0.4241
vn 0.5239 0.7387 -0.4241
vn -0.0000 0.6141 -0.7892
vn -0.0000 0.8497 -0.5273
vn -0.0000 0.4526 0.8917
vn -0.0000 0.7175 0.6965
vt 0.125000 0.500000
vt 0.375000 0.500000
vt 0.375000 0.750000
vt 0.125000 0.750000
vt 0.642659 0.500000
vt 0.697531 0.500000
vt 0.697531 0.750000
vt 0.642659 0.750000
vt 0.375000 0.250000
vt 0.422107 0.250000
vt 0.465509 0.267978
vt 0.625000 0.427469
vt 0.625000 0.482341
vt 0.584004 0.492384
vt 0.520901 0.500000
vt 0.520901 0.750000
vt 0.584004 0.757616
vt 0.625000 0.767659
vt 0.625000 0.822531
vt 0.465509 0.982022
vt 0.422107 1.000000
vt 0.375000 1.000000
vt 0.590618 0.048623
vt 0.590618 0.201377
vt 0.537250 0.201377
vt 0.537250 0.048623
vt 0.520901 0.750000
vt 0.375000 0.000000
vt 0.422107 0.000000
vt 0.422107 0.250000
vt 0.625000 0.000000
vt 0.625000 0.250000
vt 0.511966 0.012866
vt 0.515240 0.000000
vt 0.515240 0.250000
vt 0.511966 0.237134
vt 0.447531 0.012866
vt 0.447531 0.000000
vt 0.447531 0.237134
vt 0.447531 0.250000
vt 0.471272 0.012866
vt 0.471272 0.237134
vt 0.591620 0.500000
vt 0.591620 0.750000
s 0
f 2/1/1 4/2/1 3/3/1 1/4/1
f 6/5/2 13/6/2 9/7/2 5/8/2
f 2/9/3 18/10/3 20/11/3 13/12/3 6/13/3 8/13/3 23/14/3 24/15/3 4/2/3
f 3/3/4 21/16/4 22/17/4 7/18/4 5/18/4 9/19/4 17/20/4 16/21/4 1/22/4
f 10/23/5 14/24/5 12/25/5 11/26/5
f 4/2/6 24/15/6 21/27/6 3/3/6
f 6/5/2 5/8/2 7/8/2 8/5/2
f 1/28/7 16/29/7 18/30/7 2/9/7
f 9/31/8 13/32/8 14/24/8 10/23/8
f 15/33/9 17/34/9 9/31/9 10/23/9 11/26/9
f 13/32/10 20/35/10 19/36/10 12/25/10 14/24/10
f 15/37/11 16/29/11 17/38/11
f 18/30/12 19/39/12 20/40/12
f 18/30/13 16/29/13 15/41/13 19/42/13
f 19/42/14 15/41/14 11/26/14 12/25/14
f 21/27/15 24/15/15 23/43/15 22/44/15
f 22/44/16 23/43/16 8/5/16 7/8/16
