# Blender 4.0.1
# www.blender.org
mtllib corp.mtl
o Cube.001
v -3.065723 0.270998 2.173251
v -3.065723 0.270998 -2.173251
v 3.065723 0.270998 2.173251
v 3.065723 0.270998 -2.173251
v -0.070338 1.729002 2.173251
v -3.065723 1.016726 2.173251
v -3.065723 1.016726 -2.173251
v -0.070338 1.729002 -2.173251
v 2.632624 1.729002 2.173251
v 2.632624 1.729002 -2.173251
v 3.065723 1.308583 2.173251
v 2.632624 1.729002 2.173251
v 2.632624 1.729002 -2.173251
v 3.065723 1.308583 -2.173251
vn -0.0000 -0.0000 -1.0000
vn -1.0000 -0.0000 -0.0000
vn -0.0000 -1.0000 -0.0000
vn -0.2313 0.9729 -0.0000
vn -0.0000 1.0000 -0.0000
vn 1.0000 -0.0000 -0.0000
vn -0.0000 -0.0000 1.0000
vn 0.6965 0.7175 -0.0000
vt 0.375000 0.250000
vt 0.502868 0.250000
vt 0.625000 0.372132
vt 0.625000 0.482341
vt 0.552912 0.500000
vt 0.375000 0.500000
vt 0.375000 0.000000
vt 0.502868 0.000000
vt 0.125000 0.500000
vt 0.375000 0.750000
vt 0.125000 0.750000
vt 0.625000 0.000000
vt 0.625000 0.250000
vt 0.642659 0.500000
vt 0.752868 0.500000
vt 0.752868 0.750000
vt 0.642659 0.750000
vt 0.552912 0.750000
vt 0.552912 0.750000
vt 0.625000 0.767659
vt 0.625000 0.877868
vt 0.502868 1.000000
vt 0.375000 1.000000
s 0
f 2/1/1 7/2/1 8/3/1 10/4/1 13/4/1 14/5/1 4/6/1
f 1/7/2 6/8/2 7/2/2 2/1/2
f 2/9/3 4/6/3 3/10/3 1/11/3
f 5/12/4 8/13/4 7/2/4 6/8/4
f 10/14/5 8/15/5 5/16/5 9/17/5
f 4/6/6 14/5/6 11/18/6 3/10/6
f 3/10/7 11/19/7 12/20/7 9/20/7 5/21/7 6/22/7 1/23/7
f 11/18/8 14/5/8 13/14/8 12/17/8
f 10/14/5 9/17/5 12/17/5 13/14/5
