# Blender 4.0.1
# www.blender.org
mtllib turela.mtl
o Cube.005
v -0.842826 2.392671 1.000000
v -1.151372 2.392671 0.731591
v 1.147696 2.392671 0.781416
v 0.896426 2.392671 1.000000
v 0.843707 2.392671 -1.000000
v 1.147696 2.392671 -0.735555
v -1.151372 2.392671 -0.687041
v -0.791614 2.392671 -1.000000
v -0.808324 3.607329 0.575329
v -1.151372 3.197437 0.731591
v -0.714496 3.607329 0.656952
v -0.842826 3.197437 1.000000
v 0.768095 3.607329 0.656952
v 0.896426 3.197437 1.000000
v 0.804648 3.607329 0.625154
v 1.147696 3.197437 0.781416
v 0.804648 3.607329 -0.579294
v 1.147696 3.197437 -0.735555
v 0.715376 3.607329 -0.656952
v 0.843707 3.197437 -1.000000
v -0.663284 3.607329 -0.656952
v -0.791614 3.197437 -1.000000
v -0.808324 3.607329 -0.530779
v -1.151372 3.197437 -0.687041
vn -0.0000 -1.0000 -0.0000
vn 0.6563 -0.0000 -0.7545
vn -0.0000 -0.0000 1.0000
vn -1.0000 -0.0000 -0.0000
vn 1.0000 -0.0000 -0.0000
vn 0.6563 -0.0000 0.7545
vn -0.0000 -0.0000 -1.0000
vn -0.6563 -0.0000 0.7545
vn -0.6563 -0.0000 -0.7545
vn -0.5033 0.6418 0.5786
vn 0.5033 0.6418 0.5786
vn -0.0000 0.6418 0.7669
vn 0.5033 0.6418 -0.5786
vn 0.7669 0.6418 -0.0000
vn -0.5033 0.6418 -0.5786
vn -0.0000 0.6418 -0.7669
vn -0.7669 0.6418 -0.0000
vn -0.0000 1.0000 -0.0000
vt 0.125000 0.533551
vt 0.158551 0.500000
vt 0.335880 0.500000
vt 0.375000 0.539120
vt 0.375000 0.716944
vt 0.341944 0.750000
vt 0.152323 0.750000
vt 0.125000 0.722677
vt 0.540636 0.783056
vt 0.375000 0.783056
vt 0.540636 0.716944
vt 0.375000 0.027323
vt 0.540636 0.027323
vt 0.540636 0.216449
vt 0.375000 0.216449
vt 0.375000 0.283551
vt 0.540636 0.283551
vt 0.540636 0.460880
vt 0.375000 0.460880
vt 0.540636 0.972677
vt 0.375000 0.972677
vt 0.375000 0.000000
vt 0.540636 0.000000
vt 0.540636 0.027323
vt 0.540636 0.539120
vt 0.540636 0.539120
vt 0.540636 0.460880
vt 0.832119 0.547506
vt 0.821916 0.537303
vt 0.841449 0.500000
vt 0.875000 0.533551
vt 0.828144 0.712697
vt 0.832119 0.708722
vt 0.875000 0.722677
vt 0.847677 0.750000
vt 0.667881 0.702990
vt 0.677588 0.712697
vt 0.658056 0.750000
vt 0.625000 0.716944
vt 0.683653 0.537303
vt 0.667881 0.553075
vt 0.625000 0.539120
vt 0.664120 0.500000
s 0
f 1/1/1 2/2/1 7/3/1 8/4/1 5/5/1 6/6/1 3/7/1 4/8/1
f 18/9/2 6/10/2 5/5/2 20/11/2
f 4/12/3 14/13/3 12/14/3 1/15/3
f 2/16/4 10/17/4 24/18/4 7/19/4
f 6/10/5 18/9/5 16/20/5 3/21/5
f 3/22/6 16/23/6 14/24/6 4/12/6
f 8/4/7 22/25/7 20/11/7 5/5/7
f 10/17/8 2/16/8 1/15/8 12/14/8
f 22/26/9 8/4/9 7/19/9 24/27/9
f 11/28/10 9/29/10 10/30/10 12/31/10
f 15/32/11 13/33/11 14/34/11 16/35/11
f 13/33/12 11/28/12 12/31/12 14/34/12
f 19/36/13 17/37/13 18/38/13 20/39/13
f 17/37/14 15/32/14 16/35/14 18/38/14
f 23/40/15 21/41/15 22/42/15 24/43/15
f 21/41/16 19/36/16 20/11/16 22/25/16
f 9/29/17 23/40/17 24/43/17 10/30/17
f 21/41/18 23/40/18 9/29/18 11/28/18 13/33/18 15/32/18 17/37/18 19/36/18
